<?xml version="1.0" encoding="utf-8"?>
<!-- Generator: Adobe Illustrator 22.0.1, SVG Export Plug-In . SVG Version: 6.00 Build 0)  -->
<svg version="1.1" id="Ebene_2_Kopie" xmlns="http://www.w3.org/2000/svg" xmlns:xlink="http://www.w3.org/1999/xlink" x="0px"
	 y="0px" viewBox="0 0 48.5 67.6" style="enable-background:new 0 0 48.5 67.6;" xml:space="preserve">
<style type="text/css">
	.st0{display:none;fill:none;stroke:#000000;stroke-width:7;stroke-miterlimit:10;}
	.st1{fill:#1F2530;}
	.st2{fill:none;}
	.st3{display:none;enable-background:new    ;}
	.st4{font-family:'AvenirNext-DemiBold';}
	.st5{font-size:3.0303px;}
	.st6{letter-spacing:2;}
</style>
<path class="st0" d="M9.8,46.1c-0.5,0,25.1-12.6,25.1-32.7c0-6.9-5.6-12.6-12.6-12.6S9.7,6.5,9.7,13.4L9.8,46.1h18.5
	c6.9,0,12.6-5.6,12.6-12.6S35.2,21,28.2,21H9.7"/>
<g>
	<path class="st1" d="M28.2,47H8.8v-0.8c0-0.1,0-0.2,0-0.3V13.5C8.8,6,14.9,0,22.3,0s13.5,6,13.5,13.5c0,2.8-0.5,5.5-1.4,8.2
		c4.3,2.2,7.3,6.7,7.3,11.9C41.7,41,35.6,47,28.2,47z M12.9,45.2h15.3c6.4,0,11.7-5.3,11.7-11.7c0-4.4-2.5-8.3-6.1-10.3
		c-1.8,4.4-4.8,8.7-9,12.8C20.4,40.4,15.8,43.5,12.9,45.2z M10.6,21.9v22.7c13-7.7,18.9-15.6,21.5-22c-1.2-0.4-2.5-0.7-3.9-0.7H10.6
		z M10.6,20.1h17.6c1.6,0,3.1,0.3,4.5,0.8c1-2.9,1.3-5.5,1.3-7.4C34,7,28.8,1.8,22.3,1.8S10.6,7,10.6,13.5V20.1z"/>
</g>
<rect x="-11.1" y="-58.7" class="st2" width="85.4" height="49.5"/>
<text transform="matrix(1 0 0 1 -1.0424 67.5772)" class="st3 st4 st5 st6">BILLIE</text>
<g>
	<path class="st1" d="M0,58.1h3.7c0.4,0,0.7,0.1,1.1,0.1c0.4,0.1,0.7,0.2,0.9,0.4c0.3,0.2,0.5,0.4,0.7,0.7c0.2,0.3,0.3,0.7,0.3,1.1
		c0,0.5-0.2,1-0.5,1.3c-0.3,0.4-0.7,0.6-1.2,0.8v0c0.6,0.1,1.1,0.3,1.5,0.7C6.8,63.6,7,64.2,7,64.8c0,0.5-0.1,1-0.3,1.3
		c-0.2,0.4-0.5,0.6-0.8,0.9c-0.3,0.2-0.7,0.4-1.2,0.5c-0.4,0.1-0.9,0.2-1.3,0.2H0C0,67.6,0,58.1,0,58.1z M1.7,62h1.5
		c0.6,0,1-0.1,1.3-0.3c0.3-0.2,0.4-0.5,0.4-1c0-0.4-0.2-0.7-0.5-0.9c-0.3-0.2-0.8-0.3-1.4-0.3H1.7L1.7,62L1.7,62z M1.7,66.1h1.5
		c0.2,0,0.5,0,0.7-0.1s0.5-0.1,0.7-0.2c0.2-0.1,0.4-0.3,0.5-0.4c0.1-0.2,0.2-0.4,0.2-0.8c0-0.5-0.2-0.9-0.5-1
		c-0.3-0.2-0.9-0.3-1.5-0.3H1.7V66.1z"/>
	<path class="st1" d="M11.1,58.1h1.7v9.5h-1.7V58.1z"/>
	<path class="st1" d="M17.3,58.1h1.7v8h4v1.5h-5.7V58.1z"/>
	<path class="st1" d="M26.5,58.1h1.7v8h4v1.5h-5.7L26.5,58.1L26.5,58.1z"/>
	<path class="st1" d="M35.7,58.1h1.7v9.5h-1.7V58.1z"/>
	<path class="st1" d="M41.9,58.1h6.3v1.5h-4.6V62H48v1.4h-4.3V66h4.8v1.5h-6.5V58.1z"/>
</g>
</svg>
