<svg width="92" height="92" viewBox="0 0 92 92" fill="none" xmlns="http://www.w3.org/2000/svg">
<rect x="0.5" y="0.5" width="91" height="91" rx="6.5" fill="#692CCF"/>
<rect x="0.5" y="0.5" width="91" height="91" rx="6.5" stroke="#C9D1D7"/>
<path d="M45.9669 14C36.7769 14 29.9971 20.7473 29.9971 29.9691C29.9971 39.191 36.7797 46 45.9669 46C55.1541 46 62.0029 39.2527 62.0029 29.9691C62.0029 20.6856 55.2202 14 45.9669 14ZM53.9045 32.9795C53.8757 34.4552 52.8818 35.7457 51.4367 36.1834L38.4919 40.3216C38.331 40.3721 38.1587 40.2851 38.107 40.128C38.0984 40.0971 38.0926 40.0663 38.0926 40.0354V27.0121C38.1185 25.5364 39.1153 24.243 40.5603 23.8082L53.508 19.6756C53.6689 19.6251 53.8413 19.7121 53.893 19.8692C53.9016 19.9001 53.9073 19.9309 53.9073 19.9618V32.9823L53.9045 32.9795Z" fill="white"/>
<g clip-path="url(#clip0_2336_4212)">
<path d="M47.0241 65.6088H44.3821V54.7761H46.9559V56.2219C47.6404 55.0967 48.8969 54.4242 50.2359 54.4645C52.946 54.4645 54.2448 56.3782 54.2448 58.7577V65.6098H51.6029V59.2033C51.6029 57.8694 50.9875 56.8007 49.3253 56.8007C47.8211 56.8007 47.0251 57.935 47.0251 59.3586V65.6088H47.0241Z" fill="white"/>
<path d="M72.3516 65.9203C69.7096 65.9203 68.1599 64.0067 68.1599 61.605V54.7751H70.8019V61.1372C70.8019 62.4711 71.4399 63.6064 73.034 63.6064C74.628 63.6064 75.358 62.6062 75.358 61.1815V54.7751H77.9999V63.6276C77.9999 64.5168 77.9545 65.2075 77.9999 65.6078H75.4942C75.4715 65.2075 75.4715 64.8062 75.4942 64.4069C74.9481 65.386 73.6493 65.9193 72.3505 65.9193" fill="white"/>
<path d="M26.7463 54.4636C25.272 54.3829 23.8782 55.124 23.1473 56.3772C22.5351 55.1421 21.2239 54.3879 19.8218 54.4636C18.5014 54.4293 17.2583 55.0705 16.5418 56.1544V54.7761H14L14.0134 65.6088H16.6347V59.1802C16.6347 57.8009 17.5237 56.7775 18.935 56.7775C20.4392 56.7775 21.0762 57.7565 21.0762 59.0017V65.6088H23.6707V59.1802C23.5861 57.939 24.5462 56.8662 25.8171 56.7825C25.8688 56.7795 25.9193 56.7775 25.971 56.7775C27.4515 56.7775 28.1122 57.7333 28.1122 59.0017V65.6088H30.6633V58.5772C30.6633 55.7077 28.7503 54.4625 26.7453 54.4625" fill="white"/>
<path d="M66.5825 50L63.894 50.858V56.0435C63.5523 55.3538 62.5736 54.4867 60.6367 54.4867C57.5136 54.4867 55.3528 57.0447 55.3528 60.1572C55.3528 63.4269 57.494 65.876 60.6822 65.876C61.9964 65.9335 63.2405 65.2962 63.9384 64.2073V65.6088H66.5804C66.5577 65.4313 66.5804 64.6086 66.5804 63.6286V50H66.5825ZM60.9795 63.6064C59.18 63.6064 57.9958 62.2271 57.9958 60.1582C57.9958 58.0892 59.2719 56.7745 61.0022 56.7745C62.7326 56.7745 63.9178 58.065 63.9178 60.134C63.9178 62.2029 62.7109 63.6044 60.9795 63.6044" fill="white"/>
<path d="M37.5268 54.5009C34.2241 54.5009 31.7876 56.9257 31.7876 60.2398C31.7876 63.554 34.2252 66.001 37.5268 66.001C40.8285 66.001 43.2898 63.5762 43.2898 60.2398C43.2898 56.9035 40.8523 54.5009 37.5268 54.5009ZM40.3794 61.3217C40.3691 61.852 40.0119 62.3158 39.4926 62.4731L34.8405 63.9603C34.7827 63.9785 34.7207 63.9472 34.7021 63.8907C34.699 63.8796 34.697 63.8686 34.697 63.8575V59.1771C34.7063 58.6468 35.0645 58.182 35.5838 58.0257L40.237 56.5406C40.2948 56.5224 40.3567 56.5537 40.3753 56.6101C40.3784 56.6212 40.3805 56.6323 40.3805 56.6434V61.3227L40.3794 61.3217Z" fill="white"/>
</g>
<path d="M21.3274 71.9091V77H20.5593V71.9091H21.3274ZM27.185 71.9091V77H26.4791L23.8914 73.2663H23.8441V77H23.076V71.9091H23.787L26.3772 75.6477H26.4244V71.9091H27.185ZM31.7121 73.2464C31.6856 73.0111 31.5763 72.8288 31.384 72.6996C31.1918 72.5687 30.9498 72.5032 30.6582 72.5032C30.4494 72.5032 30.2687 72.5363 30.1163 72.6026C29.9638 72.6673 29.8453 72.7567 29.7608 72.8711C29.6779 72.9838 29.6365 73.1122 29.6365 73.2564C29.6365 73.3774 29.6647 73.4818 29.721 73.5696C29.779 73.6574 29.8544 73.7312 29.9472 73.7908C30.0417 73.8488 30.1428 73.8977 30.2505 73.9375C30.3582 73.9756 30.4618 74.0071 30.5612 74.032L31.0584 74.1612C31.2208 74.201 31.3873 74.2549 31.558 74.3228C31.7287 74.3907 31.887 74.4802 32.0328 74.5913C32.1786 74.7023 32.2963 74.8398 32.3858 75.0039C32.4769 75.168 32.5225 75.3643 32.5225 75.593C32.5225 75.8814 32.4479 76.1374 32.2988 76.3612C32.1513 76.5849 31.9367 76.7614 31.655 76.8906C31.3749 77.0199 31.036 77.0845 30.6383 77.0845C30.2571 77.0845 29.9273 77.024 29.6489 76.9031C29.3705 76.7821 29.1526 76.6106 28.9952 76.3885C28.8377 76.1648 28.7507 75.8996 28.7342 75.593H29.5048C29.5197 75.777 29.5793 75.9303 29.6837 76.0529C29.7898 76.1739 29.9249 76.2642 30.0889 76.3239C30.2546 76.3819 30.4361 76.4109 30.6333 76.4109C30.8504 76.4109 31.0435 76.3769 31.2125 76.3089C31.3832 76.2393 31.5174 76.1432 31.6152 76.0206C31.713 75.8963 31.7619 75.7513 31.7619 75.5856C31.7619 75.4348 31.7188 75.3113 31.6326 75.2152C31.5481 75.1191 31.4329 75.0395 31.2871 74.9766C31.1429 74.9136 30.9797 74.8581 30.7974 74.81L30.1958 74.646C29.7881 74.5349 29.465 74.3717 29.2264 74.1562C28.9894 73.9408 28.8709 73.6558 28.8709 73.3011C28.8709 73.0078 28.9504 72.7518 29.1095 72.533C29.2686 72.3143 29.484 72.1444 29.7558 72.0234C30.0276 71.9008 30.3342 71.8395 30.6756 71.8395C31.0203 71.8395 31.3244 71.9 31.5879 72.021C31.853 72.1419 32.0618 72.3085 32.2143 72.5206C32.3667 72.7311 32.4463 72.973 32.4529 73.2464H31.7121ZM33.8193 72.5703V71.9091H37.7593V72.5703H36.1709V77H35.4053V72.5703H33.8193ZM39.0884 77H38.2731L40.1051 71.9091H40.9926L42.8246 77H42.0093L40.57 72.8338H40.5302L39.0884 77ZM39.2252 75.0064H41.8701V75.6527H39.2252V75.0064ZM48.2988 71.9091V77H47.5928L45.0051 73.2663H44.9579V77H44.1898V71.9091H44.9007L47.4909 75.6477H47.5381V71.9091H48.2988ZM49.7982 72.5703V71.9091H53.7382V72.5703H52.1498V77H51.3841V72.5703H49.7982ZM57.7214 77V71.9091H59.536C59.9321 71.9091 60.2602 71.9812 60.5204 72.1254C60.7806 72.2695 60.9753 72.4667 61.1045 72.717C61.2338 72.9656 61.2984 73.2456 61.2984 73.5572C61.2984 73.8704 61.233 74.1521 61.1021 74.4023C60.9728 74.6509 60.7772 74.8481 60.5154 74.994C60.2552 75.1381 59.9279 75.2102 59.5335 75.2102H58.2857V74.5589H59.4639C59.7142 74.5589 59.9172 74.5159 60.0729 74.4297C60.2287 74.3419 60.3431 74.2225 60.416 74.0717C60.4889 73.9209 60.5254 73.7494 60.5254 73.5572C60.5254 73.3649 60.4889 73.1942 60.416 73.0451C60.3431 72.896 60.2279 72.7791 60.0705 72.6946C59.9147 72.6101 59.7092 72.5678 59.454 72.5678H58.4895V77H57.7214ZM62.7189 77H61.9036L63.7356 71.9091H64.623L66.4551 77H65.6397L64.2004 72.8338H64.1607L62.7189 77ZM62.8556 75.0064H65.5005V75.6527H62.8556V75.0064ZM66.908 71.9091H67.7805L69.1104 74.2234H69.1651L70.495 71.9091H71.3675L69.5205 75.0014V77H68.7549V75.0014L66.908 71.9091Z" fill="white"/>
<defs>
<clipPath id="clip0_2336_4212">
<rect width="64" height="16" fill="white" transform="translate(14 50)"/>
</clipPath>
</defs>
</svg>
