<svg width="92" height="92" viewBox="0 0 92 92" fill="none" xmlns="http://www.w3.org/2000/svg">
<rect x="0.5" y="0.5" width="91" height="91" rx="6.5" fill="#692CCF"/>
<rect x="0.5" y="0.5" width="91" height="91" rx="6.5" stroke="#C9D1D7"/>
<path d="M45.9669 14C36.7769 14 29.9971 20.7473 29.9971 29.9691C29.9971 39.191 36.7797 46 45.9669 46C55.1541 46 62.0029 39.2527 62.0029 29.9691C62.0029 20.6856 55.2202 14 45.9669 14ZM53.9045 32.9795C53.8757 34.4552 52.8818 35.7457 51.4367 36.1834L38.4919 40.3216C38.331 40.3721 38.1587 40.2851 38.107 40.128C38.0984 40.0971 38.0926 40.0663 38.0926 40.0354V27.0121C38.1185 25.5364 39.1153 24.243 40.5603 23.8082L53.508 19.6756C53.6689 19.6251 53.8413 19.7121 53.893 19.8692C53.9016 19.9001 53.9073 19.9309 53.9073 19.9618V32.9823L53.9045 32.9795Z" fill="white"/>
<g clip-path="url(#clip0_2336_4129)">
<path d="M47.0242 65.6088H44.3822V54.7761H46.956V56.2219C47.6405 55.0967 48.897 54.4242 50.2361 54.4645C52.9462 54.4645 54.245 56.3782 54.245 58.7577V65.6098H51.603V59.2033C51.603 57.8694 50.9877 56.8007 49.3255 56.8007C47.8212 56.8007 47.0252 57.935 47.0252 59.3586V65.6088H47.0242Z" fill="white"/>
<path d="M72.3516 65.9203C69.7096 65.9203 68.1599 64.0067 68.1599 61.605V54.7751H70.8019V61.1372C70.8019 62.4711 71.4399 63.6064 73.034 63.6064C74.628 63.6064 75.358 62.6062 75.358 61.1815V54.7751H77.9999V63.6276C77.9999 64.5168 77.9545 65.2075 77.9999 65.6078H75.4942C75.4715 65.2075 75.4715 64.8062 75.4942 64.4069C74.9481 65.386 73.6493 65.9193 72.3505 65.9193" fill="white"/>
<path d="M26.7463 54.4636C25.272 54.3829 23.8782 55.124 23.1473 56.3772C22.5351 55.1421 21.2239 54.3879 19.8218 54.4636C18.5014 54.4293 17.2583 55.0705 16.5418 56.1544V54.7761H14L14.0134 65.6088H16.6347V59.1802C16.6347 57.8009 17.5237 56.7775 18.935 56.7775C20.4392 56.7775 21.0762 57.7565 21.0762 59.0017V65.6088H23.6707V59.1802C23.5861 57.939 24.5462 56.8662 25.8171 56.7825C25.8688 56.7795 25.9193 56.7775 25.971 56.7775C27.4515 56.7775 28.1122 57.7333 28.1122 59.0017V65.6088H30.6633V58.5772C30.6633 55.7077 28.7503 54.4625 26.7453 54.4625" fill="white"/>
<path d="M66.5825 50L63.894 50.858V56.0435C63.5523 55.3538 62.5736 54.4867 60.6367 54.4867C57.5136 54.4867 55.3528 57.0447 55.3528 60.1572C55.3528 63.4269 57.494 65.876 60.6822 65.876C61.9964 65.9335 63.2405 65.2962 63.9384 64.2073V65.6088H66.5804C66.5577 65.4313 66.5804 64.6086 66.5804 63.6286V50H66.5825ZM60.9795 63.6064C59.18 63.6064 57.9958 62.2271 57.9958 60.1582C57.9958 58.0892 59.2719 56.7745 61.0022 56.7745C62.7326 56.7745 63.9178 58.065 63.9178 60.134C63.9178 62.2029 62.7109 63.6044 60.9795 63.6044" fill="white"/>
<path d="M37.5268 54.5009C34.2241 54.5009 31.7876 56.9257 31.7876 60.2398C31.7876 63.554 34.2252 66.001 37.5268 66.001C40.8285 66.001 43.2898 63.5762 43.2898 60.2398C43.2898 56.9035 40.8523 54.5009 37.5268 54.5009ZM40.3794 61.3217C40.3691 61.852 40.0119 62.3158 39.4926 62.4731L34.8405 63.9603C34.7827 63.9785 34.7207 63.9472 34.7021 63.8907C34.699 63.8796 34.697 63.8686 34.697 63.8575V59.1771C34.7063 58.6468 35.0645 58.182 35.5838 58.0257L40.237 56.5406C40.2948 56.5224 40.3567 56.5537 40.3753 56.6101C40.3784 56.6212 40.3805 56.6323 40.3805 56.6434V61.3227L40.3794 61.3217Z" fill="white"/>
</g>
<path d="M10.8274 71.9091V77H10.0593V71.9091H10.8274ZM16.685 71.9091V77H15.9791L13.3914 73.2663H13.3441V77H12.576V71.9091H13.287L15.8772 75.6477H15.9244V71.9091H16.685ZM18.8805 71.9091L20.2974 76.0554H20.3545L21.7715 71.9091H22.6017L20.7697 77H19.8822L18.0502 71.9091H18.8805ZM28.1362 74.4545C28.1362 74.9981 28.0368 75.4654 27.8379 75.8565C27.639 76.246 27.3664 76.5459 27.0201 76.7564C26.6754 76.9652 26.2834 77.0696 25.8443 77.0696C25.4035 77.0696 25.0099 76.9652 24.6635 76.7564C24.3188 76.5459 24.047 76.2451 23.8482 75.854C23.6493 75.4629 23.5499 74.9964 23.5499 74.4545C23.5499 73.911 23.6493 73.4445 23.8482 73.055C24.047 72.6639 24.3188 72.364 24.6635 72.1552C25.0099 71.9447 25.4035 71.8395 25.8443 71.8395C26.2834 71.8395 26.6754 71.9447 27.0201 72.1552C27.3664 72.364 27.639 72.6639 27.8379 73.055C28.0368 73.4445 28.1362 73.911 28.1362 74.4545ZM27.3755 74.4545C27.3755 74.0402 27.3084 73.6914 27.1742 73.408C27.0416 73.123 26.8593 72.9076 26.6273 72.7617C26.397 72.6142 26.1359 72.5405 25.8443 72.5405C25.551 72.5405 25.2891 72.6142 25.0588 72.7617C24.8284 72.9076 24.6461 73.123 24.5119 73.408C24.3793 73.6914 24.313 74.0402 24.313 74.4545C24.313 74.8688 24.3793 75.2185 24.5119 75.5036C24.6461 75.7869 24.8284 76.0024 25.0588 76.1499C25.2891 76.2957 25.551 76.3686 25.8443 76.3686C26.1359 76.3686 26.397 76.2957 26.6273 76.1499C26.8593 76.0024 27.0416 75.7869 27.1742 75.5036C27.3084 75.2185 27.3755 74.8688 27.3755 74.4545ZM30.4919 71.9091V77H29.7238V71.9091H30.4919ZM36.4689 73.5646H35.6933C35.6635 73.3989 35.608 73.2531 35.5268 73.1271C35.4456 73.0012 35.3461 72.8943 35.2285 72.8065C35.1108 72.7186 34.9791 72.6523 34.8332 72.6076C34.6891 72.5629 34.5358 72.5405 34.3734 72.5405C34.08 72.5405 33.8174 72.6142 33.5854 72.7617C33.355 72.9092 33.1727 73.1255 33.0385 73.4105C32.9059 73.6955 32.8396 74.0436 32.8396 74.4545C32.8396 74.8688 32.9059 75.2185 33.0385 75.5036C33.1727 75.7886 33.3558 76.004 33.5879 76.1499C33.8199 76.2957 34.0809 76.3686 34.3709 76.3686C34.5316 76.3686 34.6841 76.3471 34.8283 76.304C34.9741 76.2592 35.1058 76.1938 35.2235 76.1076C35.3412 76.0214 35.4406 75.9162 35.5218 75.7919C35.6047 75.666 35.6618 75.5218 35.6933 75.3594L36.4689 75.3619C36.4275 75.6121 36.3471 75.8424 36.2278 76.0529C36.1101 76.2617 35.9585 76.4424 35.7729 76.5948C35.5889 76.7456 35.3785 76.8625 35.1415 76.9453C34.9045 77.0282 34.646 77.0696 34.3659 77.0696C33.9251 77.0696 33.5323 76.9652 33.1876 76.7564C32.8429 76.5459 32.5712 76.2451 32.3723 75.854C32.1751 75.4629 32.0765 74.9964 32.0765 74.4545C32.0765 73.911 32.1759 73.4445 32.3748 73.055C32.5737 72.6639 32.8454 72.364 33.1901 72.1552C33.5348 71.9447 33.9268 71.8395 34.3659 71.8395C34.636 71.8395 34.8879 71.8784 35.1216 71.9563C35.3569 72.0326 35.5682 72.1452 35.7555 72.2944C35.9427 72.4419 36.0977 72.6225 36.2203 72.8363C36.3429 73.0484 36.4258 73.2912 36.4689 73.5646ZM38.018 77V71.9091H41.2098V72.5703H38.7861V74.1214H41.0432V74.7802H38.7861V76.3388H41.2396V77H38.018ZM45.3483 77V71.9091H47.163C47.559 71.9091 47.8872 71.9812 48.1473 72.1254C48.4075 72.2695 48.6022 72.4667 48.7315 72.717C48.8608 72.9656 48.9254 73.2456 48.9254 73.5572C48.9254 73.8704 48.8599 74.1521 48.729 74.4023C48.5997 74.6509 48.4042 74.8481 48.1424 74.994C47.8822 75.1381 47.5549 75.2102 47.1605 75.2102H45.9126V74.5589H47.0909C47.3411 74.5589 47.5441 74.5159 47.6999 74.4297C47.8557 74.3419 47.97 74.2225 48.0429 74.0717C48.1158 73.9209 48.1523 73.7494 48.1523 73.5572C48.1523 73.3649 48.1158 73.1942 48.0429 73.0451C47.97 72.896 47.8548 72.7791 47.6974 72.6946C47.5416 72.6101 47.3361 72.5678 47.0809 72.5678H46.1164V77H45.3483ZM50.3459 77H49.5305L51.3626 71.9091H52.25L54.082 77H53.2667L51.8274 72.8338H51.7876L50.3459 77ZM50.4826 75.0064H53.1275V75.6527H50.4826V75.0064ZM54.5349 71.9091H55.4074L56.7373 74.2234H56.792L58.1219 71.9091H58.9944L57.1475 75.0014V77H56.3819V75.0014L54.5349 71.9091ZM60.3497 71.9091H61.2818L62.9026 75.8665H62.9622L64.583 71.9091H65.5151V77H64.7843V73.3161H64.7371L63.2357 76.9925H62.6291L61.1277 73.3136H61.0805V77H60.3497V71.9091ZM67.2619 77V71.9091H70.4536V72.5703H68.03V74.1214H70.2871V74.7802H68.03V76.3388H70.4835V77H67.2619ZM76.2187 71.9091V77H75.5127L72.925 73.2663H72.8778V77H72.1097V71.9091H72.8206L75.4108 75.6477H75.458V71.9091H76.2187ZM77.7181 72.5703V71.9091H81.6581V72.5703H80.0696V77H79.304V72.5703H77.7181Z" fill="white"/>
<defs>
<clipPath id="clip0_2336_4129">
<rect width="64" height="16" fill="white" transform="translate(14 50)"/>
</clipPath>
</defs>
</svg>
