<svg width="92" height="92" viewBox="0 0 92 92" fill="none" xmlns="http://www.w3.org/2000/svg">
<rect x="0.5" y="0.5" width="91" height="91" rx="6.5" fill="#692CCF"/>
<rect x="0.5" y="0.5" width="91" height="91" rx="6.5" stroke="#C9D1D7"/>
<path d="M45.9669 19C36.7769 19 29.9971 25.7473 29.9971 34.9691C29.9971 44.191 36.7797 51 45.9669 51C55.1541 51 62.0029 44.2527 62.0029 34.9691C62.0029 25.6856 55.2202 19 45.9669 19ZM53.9045 37.9795C53.8757 39.4552 52.8818 40.7457 51.4367 41.1834L38.4919 45.3216C38.331 45.3721 38.1587 45.2851 38.107 45.128C38.0984 45.0971 38.0926 45.0663 38.0926 45.0354V32.0121C38.1185 30.5364 39.1153 29.243 40.5603 28.8082L53.508 24.6756C53.6689 24.6251 53.8413 24.7121 53.893 24.8692C53.9016 24.9001 53.9073 24.9309 53.9073 24.9618V37.9823L53.9045 37.9795Z" fill="white"/>
<g clip-path="url(#clip0_2336_4119)">
<path d="M47.0242 72.6088H44.3822V61.7761H46.956V63.2219C47.6405 62.0967 48.897 61.4242 50.2361 61.4645C52.9462 61.4645 54.245 63.3782 54.245 65.7577V72.6098H51.603V66.2033C51.603 64.8694 50.9877 63.8007 49.3255 63.8007C47.8212 63.8007 47.0252 64.935 47.0252 66.3586V72.6088H47.0242Z" fill="white"/>
<path d="M72.3516 72.9203C69.7096 72.9203 68.1599 71.0067 68.1599 68.605V61.7751H70.8019V68.1372C70.8019 69.4711 71.4399 70.6064 73.034 70.6064C74.628 70.6064 75.358 69.6062 75.358 68.1815V61.7751H77.9999V70.6276C77.9999 71.5168 77.9545 72.2075 77.9999 72.6078H75.4942C75.4715 72.2075 75.4715 71.8062 75.4942 71.4069C74.9481 72.386 73.6493 72.9193 72.3505 72.9193" fill="white"/>
<path d="M26.7463 61.4636C25.272 61.3829 23.8782 62.124 23.1473 63.3772C22.5351 62.1421 21.2239 61.3879 19.8218 61.4636C18.5014 61.4293 17.2583 62.0705 16.5418 63.1544V61.7761H14L14.0134 72.6088H16.6347V66.1802C16.6347 64.8009 17.5237 63.7775 18.935 63.7775C20.4392 63.7775 21.0762 64.7565 21.0762 66.0017V72.6088H23.6707V66.1802C23.5861 64.939 24.5462 63.8662 25.8171 63.7825C25.8688 63.7795 25.9193 63.7775 25.971 63.7775C27.4515 63.7775 28.1122 64.7333 28.1122 66.0017V72.6088H30.6633V65.5772C30.6633 62.7077 28.7503 61.4625 26.7453 61.4625" fill="white"/>
<path d="M66.5825 57L63.894 57.858V63.0435C63.5523 62.3538 62.5736 61.4867 60.6367 61.4867C57.5136 61.4867 55.3528 64.0447 55.3528 67.1572C55.3528 70.4269 57.494 72.876 60.6822 72.876C61.9964 72.9335 63.2405 72.2962 63.9384 71.2073V72.6088H66.5804C66.5577 72.4313 66.5804 71.6086 66.5804 70.6286V57H66.5825ZM60.9795 70.6064C59.18 70.6064 57.9958 69.2271 57.9958 67.1582C57.9958 65.0892 59.2719 63.7745 61.0022 63.7745C62.7326 63.7745 63.9178 65.065 63.9178 67.134C63.9178 69.2029 62.7109 70.6044 60.9795 70.6044" fill="white"/>
<path d="M37.5268 61.5009C34.2241 61.5009 31.7876 63.9257 31.7876 67.2398C31.7876 70.554 34.2252 73.001 37.5268 73.001C40.8285 73.001 43.2898 70.5762 43.2898 67.2398C43.2898 63.9035 40.8523 61.5009 37.5268 61.5009ZM40.3794 68.3217C40.3691 68.852 40.0119 69.3158 39.4926 69.4731L34.8405 70.9603C34.7827 70.9785 34.7207 70.9472 34.7021 70.8907C34.699 70.8796 34.697 70.8686 34.697 70.8575V66.1771C34.7063 65.6468 35.0645 65.182 35.5838 65.0257L40.237 63.5406C40.2948 63.5224 40.3567 63.5537 40.3753 63.6101C40.3784 63.6212 40.3805 63.6323 40.3805 63.6434V68.3227L40.3794 68.3217Z" fill="white"/>
</g>
<defs>
<clipPath id="clip0_2336_4119">
<rect width="64" height="16" fill="white" transform="translate(14 57)"/>
</clipPath>
</defs>
</svg>
