<svg width="92" height="92" viewBox="0 0 92 92" fill="none" xmlns="http://www.w3.org/2000/svg">
<rect x="0.5" y="0.5" width="91" height="91" rx="6.5" fill="#692CCF"/>
<rect x="0.5" y="0.5" width="91" height="91" rx="6.5" stroke="#C9D1D7"/>
<path d="M45.9669 14C36.7769 14 29.9971 20.7473 29.9971 29.9691C29.9971 39.191 36.7797 46 45.9669 46C55.1541 46 62.0029 39.2527 62.0029 29.9691C62.0029 20.6856 55.2202 14 45.9669 14ZM53.9045 32.9795C53.8757 34.4552 52.8818 35.7457 51.4367 36.1834L38.4919 40.3216C38.331 40.3721 38.1587 40.2851 38.107 40.128C38.0984 40.0971 38.0926 40.0663 38.0926 40.0354V27.0121C38.1185 25.5364 39.1153 24.243 40.5603 23.8082L53.508 19.6756C53.6689 19.6251 53.8413 19.7121 53.893 19.8692C53.9016 19.9001 53.9073 19.9309 53.9073 19.9618V32.9823L53.9045 32.9795Z" fill="white"/>
<g clip-path="url(#clip0_2336_4133)">
<path d="M47.0242 65.6088H44.3822V54.7761H46.956V56.2219C47.6405 55.0967 48.897 54.4242 50.2361 54.4645C52.9462 54.4645 54.245 56.3782 54.245 58.7577V65.6098H51.603V59.2033C51.603 57.8694 50.9877 56.8007 49.3255 56.8007C47.8212 56.8007 47.0252 57.935 47.0252 59.3586V65.6088H47.0242Z" fill="white"/>
<path d="M72.3516 65.9203C69.7096 65.9203 68.1599 64.0067 68.1599 61.605V54.7751H70.8019V61.1372C70.8019 62.4711 71.4399 63.6064 73.034 63.6064C74.628 63.6064 75.358 62.6062 75.358 61.1815V54.7751H77.9999V63.6276C77.9999 64.5168 77.9545 65.2075 77.9999 65.6078H75.4942C75.4715 65.2075 75.4715 64.8062 75.4942 64.4069C74.9481 65.386 73.6493 65.9193 72.3505 65.9193" fill="white"/>
<path d="M26.7463 54.4636C25.272 54.3829 23.8782 55.124 23.1473 56.3772C22.5351 55.1421 21.2239 54.3879 19.8218 54.4636C18.5014 54.4293 17.2583 55.0705 16.5418 56.1544V54.7761H14L14.0134 65.6088H16.6347V59.1802C16.6347 57.8009 17.5237 56.7775 18.935 56.7775C20.4392 56.7775 21.0762 57.7565 21.0762 59.0017V65.6088H23.6707V59.1802C23.5861 57.939 24.5462 56.8662 25.8171 56.7825C25.8688 56.7795 25.9193 56.7775 25.971 56.7775C27.4515 56.7775 28.1122 57.7333 28.1122 59.0017V65.6088H30.6633V58.5772C30.6633 55.7077 28.7503 54.4625 26.7453 54.4625" fill="white"/>
<path d="M66.5825 50L63.894 50.858V56.0435C63.5523 55.3538 62.5736 54.4867 60.6367 54.4867C57.5136 54.4867 55.3528 57.0447 55.3528 60.1572C55.3528 63.4269 57.494 65.876 60.6822 65.876C61.9964 65.9335 63.2405 65.2962 63.9384 64.2073V65.6088H66.5804C66.5577 65.4313 66.5804 64.6086 66.5804 63.6286V50H66.5825ZM60.9795 63.6064C59.18 63.6064 57.9958 62.2271 57.9958 60.1582C57.9958 58.0892 59.2719 56.7745 61.0022 56.7745C62.7326 56.7745 63.9178 58.065 63.9178 60.134C63.9178 62.2029 62.7109 63.6044 60.9795 63.6044" fill="white"/>
<path d="M37.5268 54.5009C34.2241 54.5009 31.7876 56.9257 31.7876 60.2398C31.7876 63.554 34.2252 66.001 37.5268 66.001C40.8285 66.001 43.2898 63.5762 43.2898 60.2398C43.2898 56.9035 40.8523 54.5009 37.5268 54.5009ZM40.3794 61.3217C40.3691 61.852 40.0119 62.3158 39.4926 62.4731L34.8405 63.9603C34.7827 63.9785 34.7207 63.9472 34.7021 63.8907C34.699 63.8796 34.697 63.8686 34.697 63.8575V59.1771C34.7063 58.6468 35.0645 58.182 35.5838 58.0257L40.237 56.5406C40.2948 56.5224 40.3567 56.5537 40.3753 56.6101C40.3784 56.6212 40.3805 56.6323 40.3805 56.6434V61.3227L40.3794 61.3217Z" fill="white"/>
</g>
<path d="M25.5593 77V71.9091H27.3739C27.77 71.9091 28.0981 71.9812 28.3583 72.1254C28.6185 72.2695 28.8132 72.4667 28.9425 72.717C29.0717 72.9656 29.1364 73.2456 29.1364 73.5572C29.1364 73.8704 29.0709 74.1521 28.94 74.4023C28.8107 74.6509 28.6152 74.8481 28.3533 74.994C28.0932 75.1381 27.7659 75.2102 27.3714 75.2102H26.1236V74.5589H27.3018C27.5521 74.5589 27.7551 74.5159 27.9109 74.4297C28.0666 74.3419 28.181 74.2225 28.2539 74.0717C28.3268 73.9209 28.3633 73.7494 28.3633 73.5572C28.3633 73.3649 28.3268 73.1942 28.2539 73.0451C28.181 72.896 28.0658 72.7791 27.9084 72.6946C27.7526 72.6101 27.5471 72.5678 27.2919 72.5678H26.3274V77H25.5593ZM30.5568 77H29.7415L31.5735 71.9091H32.461L34.293 77H33.4777L32.0384 72.8338H31.9986L30.5568 77ZM30.6936 75.0064H33.3385V75.6527H30.6936V75.0064ZM34.7459 71.9091H35.6184L36.9483 74.2234H37.003L38.3329 71.9091H39.2054L37.3585 75.0014V77H36.5928V75.0014L34.7459 71.9091ZM43.0432 77V71.9091H43.8113V76.3388H46.1181V77H43.0432ZM48.3142 77H47.4988L49.3308 71.9091H50.2183L52.0503 77H51.235L49.7957 72.8338H49.7559L48.3142 77ZM48.4509 75.0064H51.0958V75.6527H48.4509V75.0064ZM52.5628 72.5703V71.9091H56.5028V72.5703H54.9144V77H54.1488V72.5703H52.5628ZM58.0035 77V71.9091H61.1952V72.5703H58.7716V74.1214H61.0287V74.7802H58.7716V76.3388H61.2251V77H58.0035ZM62.8513 77V71.9091H64.6659C65.0603 71.9091 65.3876 71.977 65.6478 72.1129C65.9096 72.2488 66.1052 72.4369 66.2344 72.6772C66.3637 72.9158 66.4283 73.1918 66.4283 73.505C66.4283 73.8165 66.3629 74.0908 66.2319 74.3278C66.1027 74.5631 65.9071 74.7462 65.6453 74.8771C65.3851 75.008 65.0578 75.0735 64.6634 75.0735H63.2888V74.4123H64.5938C64.8424 74.4123 65.0446 74.3767 65.2003 74.3054C65.3578 74.2341 65.4729 74.1306 65.5459 73.9947C65.6188 73.8588 65.6552 73.6955 65.6552 73.505C65.6552 73.3127 65.6179 73.1462 65.5434 73.0053C65.4705 72.8645 65.3553 72.7567 65.1978 72.6822C65.0421 72.6059 64.8374 72.5678 64.5839 72.5678H63.6194V77H62.8513ZM65.3644 74.7031L66.6222 77H65.7472L64.5143 74.7031H65.3644Z" fill="white"/>
<defs>
<clipPath id="clip0_2336_4133">
<rect width="64" height="16" fill="white" transform="translate(14 50)"/>
</clipPath>
</defs>
</svg>
