<svg width="92" height="92" viewBox="0 0 92 92" fill="none" xmlns="http://www.w3.org/2000/svg">
<rect x="0.5" y="0.5" width="91" height="91" rx="6.5" fill="#692CCF"/>
<rect x="0.5" y="0.5" width="91" height="91" rx="6.5" stroke="#C9D1D7"/>
<path d="M45.9669 14C36.7769 14 29.9971 20.7473 29.9971 29.9691C29.9971 39.191 36.7797 46 45.9669 46C55.1541 46 62.0029 39.2527 62.0029 29.9691C62.0029 20.6856 55.2202 14 45.9669 14ZM53.9045 32.9795C53.8757 34.4552 52.8818 35.7457 51.4367 36.1834L38.4919 40.3216C38.331 40.3721 38.1587 40.2851 38.107 40.128C38.0984 40.0971 38.0926 40.0663 38.0926 40.0354V27.0121C38.1185 25.5364 39.1153 24.243 40.5603 23.8082L53.508 19.6756C53.6689 19.6251 53.8413 19.7121 53.893 19.8692C53.9016 19.9001 53.9073 19.9309 53.9073 19.9618V32.9823L53.9045 32.9795Z" fill="white"/>
<g clip-path="url(#clip0_2493_2213)">
<path d="M47.0241 65.6088H44.3821V54.7761H46.9559V56.2219C47.6404 55.0967 48.8969 54.4242 50.2359 54.4645C52.946 54.4645 54.2448 56.3782 54.2448 58.7577V65.6098H51.6029V59.2033C51.6029 57.8694 50.9875 56.8007 49.3253 56.8007C47.8211 56.8007 47.0251 57.935 47.0251 59.3586V65.6088H47.0241Z" fill="white"/>
<path d="M72.3516 65.9203C69.7096 65.9203 68.1599 64.0067 68.1599 61.605V54.7751H70.8019V61.1372C70.8019 62.4711 71.4399 63.6064 73.034 63.6064C74.628 63.6064 75.358 62.6062 75.358 61.1815V54.7751H77.9999V63.6276C77.9999 64.5168 77.9545 65.2075 77.9999 65.6078H75.4942C75.4715 65.2075 75.4715 64.8062 75.4942 64.4069C74.9481 65.386 73.6493 65.9193 72.3505 65.9193" fill="white"/>
<path d="M26.7463 54.4636C25.272 54.3829 23.8782 55.124 23.1473 56.3772C22.5351 55.1421 21.2239 54.3879 19.8218 54.4636C18.5014 54.4293 17.2583 55.0705 16.5418 56.1544V54.7761H14L14.0134 65.6088H16.6347V59.1802C16.6347 57.8009 17.5237 56.7775 18.935 56.7775C20.4392 56.7775 21.0762 57.7565 21.0762 59.0017V65.6088H23.6707V59.1802C23.5861 57.939 24.5462 56.8662 25.8171 56.7825C25.8688 56.7795 25.9193 56.7775 25.971 56.7775C27.4515 56.7775 28.1122 57.7333 28.1122 59.0017V65.6088H30.6633V58.5772C30.6633 55.7077 28.7503 54.4625 26.7453 54.4625" fill="white"/>
<path d="M66.5825 50L63.894 50.858V56.0435C63.5523 55.3538 62.5736 54.4867 60.6367 54.4867C57.5136 54.4867 55.3528 57.0447 55.3528 60.1572C55.3528 63.4269 57.494 65.876 60.6822 65.876C61.9964 65.9335 63.2405 65.2962 63.9384 64.2073V65.6088H66.5804C66.5577 65.4313 66.5804 64.6086 66.5804 63.6286V50H66.5825ZM60.9795 63.6064C59.18 63.6064 57.9958 62.2271 57.9958 60.1582C57.9958 58.0892 59.2719 56.7745 61.0022 56.7745C62.7326 56.7745 63.9178 58.065 63.9178 60.134C63.9178 62.2029 62.7109 63.6044 60.9795 63.6044" fill="white"/>
<path d="M37.5268 54.5009C34.2241 54.5009 31.7876 56.9257 31.7876 60.2398C31.7876 63.554 34.2252 66.001 37.5268 66.001C40.8285 66.001 43.2898 63.5762 43.2898 60.2398C43.2898 56.9035 40.8523 54.5009 37.5268 54.5009ZM40.3794 61.3217C40.3691 61.852 40.0119 62.3158 39.4926 62.4731L34.8405 63.9603C34.7827 63.9785 34.7207 63.9472 34.7021 63.8907C34.699 63.8796 34.697 63.8686 34.697 63.8575V59.1771C34.7063 58.6468 35.0645 58.182 35.5838 58.0257L40.237 56.5406C40.2948 56.5224 40.3567 56.5537 40.3753 56.6101C40.3784 56.6212 40.3805 56.6323 40.3805 56.6434V61.3227L40.3794 61.3217Z" fill="white"/>
</g>
<path d="M11.0593 77V71.9091H12.8739C13.27 71.9091 13.5981 71.9812 13.8583 72.1254C14.1185 72.2695 14.3132 72.4667 14.4425 72.717C14.5717 72.9656 14.6364 73.2456 14.6364 73.5572C14.6364 73.8704 14.5709 74.1521 14.44 74.4023C14.3107 74.6509 14.1152 74.8481 13.8533 74.994C13.5932 75.1381 13.2659 75.2102 12.8714 75.2102H11.6236V74.5589H12.8018C13.0521 74.5589 13.2551 74.5159 13.4109 74.4297C13.5666 74.3419 13.681 74.2225 13.7539 74.0717C13.8268 73.9209 13.8633 73.7494 13.8633 73.5572C13.8633 73.3649 13.8268 73.1942 13.7539 73.0451C13.681 72.896 13.5658 72.7791 13.4084 72.6946C13.2526 72.6101 13.0471 72.5678 12.7919 72.5678H11.8274V77H11.0593ZM16.0568 77H15.2415L17.0735 71.9091H17.961L19.793 77H18.9777L17.5384 72.8338H17.4986L16.0568 77ZM16.1936 75.0064H18.8385V75.6527H16.1936V75.0064ZM20.2459 71.9091H21.1184L22.4483 74.2234H22.503L23.8329 71.9091H24.7054L22.8585 75.0014V77H22.0928V75.0014L20.2459 71.9091ZM32.9654 74.4545C32.9654 74.9981 32.866 75.4654 32.6671 75.8565C32.4682 76.246 32.1956 76.5459 31.8493 76.7564C31.5046 76.9652 31.1127 77.0696 30.6735 77.0696C30.2327 77.0696 29.8391 76.9652 29.4927 76.7564C29.148 76.5459 28.8763 76.2451 28.6774 75.854C28.4785 75.4629 28.3791 74.9964 28.3791 74.4545C28.3791 73.911 28.4785 73.4445 28.6774 73.055C28.8763 72.6639 29.148 72.364 29.4927 72.1552C29.8391 71.9447 30.2327 71.8395 30.6735 71.8395C31.1127 71.8395 31.5046 71.9447 31.8493 72.1552C32.1956 72.364 32.4682 72.6639 32.6671 73.055C32.866 73.4445 32.9654 73.911 32.9654 74.4545ZM32.2047 74.4545C32.2047 74.0402 32.1376 73.6914 32.0034 73.408C31.8708 73.123 31.6885 72.9076 31.4565 72.7617C31.2262 72.6142 30.9652 72.5405 30.6735 72.5405C30.3802 72.5405 30.1183 72.6142 29.888 72.7617C29.6576 72.9076 29.4753 73.123 29.3411 73.408C29.2085 73.6914 29.1422 74.0402 29.1422 74.4545C29.1422 74.8688 29.2085 75.2185 29.3411 75.5036C29.4753 75.7869 29.6576 76.0024 29.888 76.1499C30.1183 76.2957 30.3802 76.3686 30.6735 76.3686C30.9652 76.3686 31.2262 76.2957 31.4565 76.1499C31.6885 76.0024 31.8708 75.7869 32.0034 75.5036C32.1376 75.2185 32.2047 74.8688 32.2047 74.4545ZM38.6621 71.9091V77H37.9561L35.3684 73.2663H35.3212V77H34.5531V71.9091H35.264L37.8542 75.6477H37.9014V71.9091H38.6621ZM43.3251 77H42.5098L44.3418 71.9091H45.2292L47.0613 77H46.2459L44.8067 72.8338H44.7669L43.3251 77ZM43.4618 75.0064H46.1067V75.6527H43.4618V75.0064ZM52.4155 73.5646H51.64C51.6101 73.3989 51.5546 73.2531 51.4734 73.1271C51.3922 73.0012 51.2928 72.8943 51.1751 72.8065C51.0575 72.7186 50.9257 72.6523 50.7799 72.6076C50.6357 72.5629 50.4824 72.5405 50.32 72.5405C50.0267 72.5405 49.764 72.6142 49.532 72.7617C49.3017 72.9092 49.1194 73.1255 48.9851 73.4105C48.8526 73.6955 48.7863 74.0436 48.7863 74.4545C48.7863 74.8688 48.8526 75.2185 48.9851 75.5036C49.1194 75.7886 49.3025 76.004 49.5345 76.1499C49.7665 76.2957 50.0275 76.3686 50.3175 76.3686C50.4783 76.3686 50.6307 76.3471 50.7749 76.304C50.9207 76.2592 51.0525 76.1938 51.1702 76.1076C51.2878 76.0214 51.3872 75.9162 51.4684 75.7919C51.5513 75.666 51.6085 75.5218 51.64 75.3594L52.4155 75.3619C52.3741 75.6121 52.2937 75.8424 52.1744 76.0529C52.0568 76.2617 51.9051 76.4424 51.7195 76.5948C51.5356 76.7456 51.3251 76.8625 51.0881 76.9453C50.8511 77.0282 50.5926 77.0696 50.3126 77.0696C49.8717 77.0696 49.479 76.9652 49.1343 76.7564C48.7896 76.5459 48.5178 76.2451 48.3189 75.854C48.1217 75.4629 48.0231 74.9964 48.0231 74.4545C48.0231 73.911 48.1226 73.4445 48.3214 73.055C48.5203 72.6639 48.7921 72.364 49.1368 72.1552C49.4815 71.9447 49.8734 71.8395 50.3126 71.8395C50.5827 71.8395 50.8346 71.8784 51.0682 71.9563C51.3036 72.0326 51.5148 72.1452 51.7021 72.2944C51.8894 72.4419 52.0443 72.6225 52.167 72.8363C52.2896 73.0484 52.3724 73.2912 52.4155 73.5646ZM58.193 73.5646H57.4174C57.3876 73.3989 57.3321 73.2531 57.2509 73.1271C57.1697 73.0012 57.0702 72.8943 56.9526 72.8065C56.8349 72.7186 56.7032 72.6523 56.5573 72.6076C56.4132 72.5629 56.2599 72.5405 56.0975 72.5405C55.8041 72.5405 55.5415 72.6142 55.3095 72.7617C55.0791 72.9092 54.8968 73.1255 54.7626 73.4105C54.63 73.6955 54.5637 74.0436 54.5637 74.4545C54.5637 74.8688 54.63 75.2185 54.7626 75.5036C54.8968 75.7886 55.0799 76.004 55.312 76.1499C55.544 76.2957 55.805 76.3686 56.095 76.3686C56.2557 76.3686 56.4082 76.3471 56.5524 76.304C56.6982 76.2592 56.8299 76.1938 56.9476 76.1076C57.0653 76.0214 57.1647 75.9162 57.2459 75.7919C57.3288 75.666 57.3859 75.5218 57.4174 75.3594L58.193 75.3619C58.1516 75.6121 58.0712 75.8424 57.9519 76.0529C57.8342 76.2617 57.6826 76.4424 57.497 76.5948C57.313 76.7456 57.1026 76.8625 56.8656 76.9453C56.6286 77.0282 56.3701 77.0696 56.09 77.0696C55.6492 77.0696 55.2564 76.9652 54.9117 76.7564C54.567 76.5459 54.2953 76.2451 54.0964 75.854C53.8992 75.4629 53.8006 74.9964 53.8006 74.4545C53.8006 73.911 53.9 73.4445 54.0989 73.055C54.2978 72.6639 54.5695 72.364 54.9142 72.1552C55.2589 71.9447 55.6509 71.8395 56.09 71.8395C56.3601 71.8395 56.612 71.8784 56.8457 71.9563C57.081 72.0326 57.2923 72.1452 57.4796 72.2944C57.6668 72.4419 57.8218 72.6225 57.9444 72.8363C58.067 73.0484 58.1499 73.2912 58.193 73.5646ZM64.1643 74.4545C64.1643 74.9981 64.0649 75.4654 63.8661 75.8565C63.6672 76.246 63.3946 76.5459 63.0482 76.7564C62.7035 76.9652 62.3116 77.0696 61.8724 77.0696C61.4316 77.0696 61.038 76.9652 60.6917 76.7564C60.347 76.5459 60.0752 76.2451 59.8763 75.854C59.6775 75.4629 59.5781 74.9964 59.5781 74.4545C59.5781 73.911 59.6775 73.4445 59.8763 73.055C60.0752 72.6639 60.347 72.364 60.6917 72.1552C61.038 71.9447 61.4316 71.8395 61.8724 71.8395C62.3116 71.8395 62.7035 71.9447 63.0482 72.1552C63.3946 72.364 63.6672 72.6639 63.8661 73.055C64.0649 73.4445 64.1643 73.911 64.1643 74.4545ZM63.4037 74.4545C63.4037 74.0402 63.3366 73.6914 63.2023 73.408C63.0698 73.123 62.8875 72.9076 62.6555 72.7617C62.4251 72.6142 62.1641 72.5405 61.8724 72.5405C61.5791 72.5405 61.3173 72.6142 61.0869 72.7617C60.8566 72.9076 60.6743 73.123 60.5401 73.408C60.4075 73.6914 60.3412 74.0402 60.3412 74.4545C60.3412 74.8688 60.4075 75.2185 60.5401 75.5036C60.6743 75.7869 60.8566 76.0024 61.0869 76.1499C61.3173 76.2957 61.5791 76.3686 61.8724 76.3686C62.1641 76.3686 62.4251 76.2957 62.6555 76.1499C62.8875 76.0024 63.0698 75.7869 63.2023 75.5036C63.3366 75.2185 63.4037 74.8688 63.4037 74.4545ZM69.0258 71.9091H69.7964V75.2575C69.7964 75.6138 69.7127 75.9295 69.5453 76.2045C69.3779 76.478 69.1426 76.6934 68.8394 76.8509C68.5361 77.0066 68.1806 77.0845 67.773 77.0845C67.3669 77.0845 67.0123 77.0066 66.709 76.8509C66.4058 76.6934 66.1704 76.478 66.0031 76.2045C65.8357 75.9295 65.752 75.6138 65.752 75.2575V71.9091H66.5201V75.1953C66.5201 75.4257 66.5707 75.6303 66.6717 75.8093C66.7745 75.9883 66.9195 76.1291 67.1068 76.2319C67.294 76.333 67.5161 76.3835 67.773 76.3835C68.0315 76.3835 68.2544 76.333 68.4416 76.2319C68.6306 76.1291 68.7747 75.9883 68.8742 75.8093C68.9752 75.6303 69.0258 75.4257 69.0258 75.1953V71.9091ZM75.6522 71.9091V77H74.9462L72.3585 73.2663H72.3112V77H71.5431V71.9091H72.2541L74.8443 75.6477H74.8915V71.9091H75.6522ZM77.1516 72.5703V71.9091H81.0915V72.5703H79.5031V77H78.7375V72.5703H77.1516Z" fill="white"/>
<defs>
<clipPath id="clip0_2493_2213">
<rect width="64" height="16" fill="white" transform="translate(14 50)"/>
</clipPath>
</defs>
</svg>
